<svg width="23" height="22" viewBox="0 0 23 22" fill="none" xmlns="http://www.w3.org/2000/svg">
<path d="M21.761 20.1786C21.9606 20.3802 22.0726 20.6524 22.0726 20.9361C22.0726 21.2197 21.9606 21.4919 21.761 21.6935C21.5578 21.8899 21.2862 21.9998 21.0036 21.9998C20.7209 21.9998 20.4493 21.8899 20.2462 21.6935L11.4363 12.8703L2.62646 21.6935C2.42328 21.8899 2.1517 21.9998 1.86906 21.9998C1.58642 21.9998 1.31484 21.8899 1.11165 21.6935C0.912032 21.4919 0.800049 21.2197 0.800049 20.9361C0.800049 20.6524 0.912032 20.3802 1.11165 20.1786L9.93478 11.3688L1.11165 2.55895C0.942135 2.35241 0.855507 2.0902 0.868614 1.82332C0.881722 1.55645 0.993627 1.30399 1.18256 1.11505C1.3715 0.926114 1.62396 0.814209 1.89084 0.801101C2.15771 0.787994 2.41992 0.874622 2.62646 1.04414L11.4363 9.86727L20.2462 1.04414C20.4527 0.874622 20.7149 0.787994 20.9818 0.801101C21.2487 0.814209 21.5011 0.926114 21.6901 1.11505C21.879 1.30399 21.9909 1.55645 22.004 1.82332C22.0171 2.0902 21.9305 2.35241 21.761 2.55895L12.9378 11.3688L21.761 20.1786Z" fill="black"/>
</svg>
